<?xml version="1.0" encoding="UTF-8"?><svg id="a" xmlns="http://www.w3.org/2000/svg" viewBox="-4 0 25 25"><defs><style>.b{fill:#fff;}</style></defs><path class="b" d="M4.14,5.63h2.24c.05,.53,.52,.87,1.14,.87,.76,0,1.25-.61,1.25-1.36,.01-.56-.34-1.03-1.02-1.03-.4,0-.79,.19-1,.48h-2.06s-.07-.04-.06-.08L5.68,.06h5.65s.05,.03,.04,.05l-.32,1.6c-.02,.11-.12,.19-.23,.19h-3.56l-.21,1.13h.04c.26-.21,.79-.46,1.59-.46,1.52,0,2.41,.95,2.41,2.49,0,1.89-1.39,3.24-3.57,3.24-1.73,0-3.28-.67-3.38-2.68Z"/><g><path class="b" d="M1.49,3.44H.08c-.05,0-.09-.05-.08-.1l.27-1.22s.04-.06,.08-.07C1.48,1.98,3.07,1.22,3.44,.05c.01-.03,.03-.05,.07-.05h1.24c.05,0,.09,.05,.08,.1l-1.81,7.96s-.04,.07-.08,.07H.79c-.05,0-.09-.05-.08-.1L1.84,3.54c0-.05-.29-.1-.34-.1Z"/><path class="b" d="M9.8,10.53h-1.41c-.05,0-.09-.05-.08-.1l.27-1.22s.04-.06,.08-.07c1.13-.08,2.71-.84,3.09-2.01,.01-.03,.03-.05,.07-.05h1.24c.05,0,.09,.05,.08,.1l-1.81,7.96s-.04,.07-.08,.07h-2.15c-.05,0-.09-.05-.08-.1l1.13-4.48c0-.05-.29-.1-.34-.1Z"/><path class="b" d="M12.66,11.88c0-2.4,1.46-4.8,4.08-4.8,1.88,0,3.26,1.19,3.26,3.38,0,2.43-1.47,4.81-4.07,4.81-1.93,0-3.27-1.25-3.27-3.39Zm3.31,1.71c1.33,0,1.74-2.17,1.74-3.35,0-.68-.18-1.5-1.02-1.5-1.35,0-1.77,2.25-1.77,3.42,0,.72,.21,1.43,1.04,1.43Z"/></g></svg>